<svg width="57" height="62" viewBox="0 0 57 62" fill="none" xmlns="http://www.w3.org/2000/svg">
<path d="M40.4744 36.7127C40.3665 36.5788 40.2604 36.4449 40.1563 36.3156C38.7253 34.5337 37.8595 33.4583 37.8595 28.4138C37.8595 25.8022 37.2525 23.6594 36.0563 22.0522C35.1742 20.865 33.9819 19.9643 32.4103 19.2987C32.3901 19.2871 32.372 19.2719 32.3569 19.2538C31.7917 17.3051 30.2448 16 28.5002 16C26.7555 16 25.2093 17.3051 24.644 19.2518C24.629 19.2692 24.6111 19.2839 24.5913 19.2953C20.9239 20.8496 19.1415 23.8315 19.1415 28.4118C19.1415 33.4583 18.277 34.5337 16.8446 36.3136C16.7405 36.4429 16.6345 36.5741 16.5265 36.7107C16.2476 37.057 16.0709 37.4783 16.0173 37.9248C15.9637 38.3712 16.0354 38.8241 16.2241 39.2299C16.6254 40.1004 17.4808 40.6409 18.4572 40.6409H38.5503C39.5221 40.6409 40.3717 40.1011 40.7743 39.2346C40.9638 38.8287 41.0362 38.3754 40.983 37.9285C40.9299 37.4815 40.7534 37.0596 40.4744 36.7127ZM28.5002 46C29.4401 45.9992 30.3624 45.7365 31.1691 45.2399C31.9758 44.7432 32.6369 44.031 33.0822 43.1788C33.1032 43.138 33.1136 43.0922 33.1123 43.046C33.1111 42.9999 33.0982 42.9548 33.075 42.9152C33.0519 42.8757 33.0191 42.843 32.9801 42.8203C32.941 42.7976 32.8968 42.7857 32.852 42.7857H24.1497C24.1047 42.7856 24.0605 42.7974 24.0213 42.82C23.9822 42.8427 23.9494 42.8754 23.9261 42.915C23.9029 42.9545 23.89 42.9996 23.8887 43.0459C23.8874 43.0921 23.8977 43.1379 23.9187 43.1788C24.364 44.0309 25.025 44.743 25.8316 45.2397C26.6382 45.7364 27.5603 45.9991 28.5002 46Z" fill="#1B4965"/>
</svg>
