<svg width="25" height="30" viewBox="0 0 25 30" fill="none" xmlns="http://www.w3.org/2000/svg">
<path d="M24.4744 20.7127C24.3665 20.5788 24.2604 20.4449 24.1563 20.3156C22.7253 18.5337 21.8595 17.4583 21.8595 12.4138C21.8595 9.80223 21.2525 7.65938 20.0563 6.05223C19.1742 4.86496 17.9819 3.96429 16.4103 3.29866C16.3901 3.28708 16.372 3.27189 16.3569 3.25379C15.7917 1.30513 14.2448 0 12.5002 0C10.7555 0 9.20932 1.30513 8.64404 3.25179C8.62895 3.26921 8.61115 3.28393 8.59135 3.29531C4.92387 4.84955 3.14152 7.83147 3.14152 12.4118C3.14152 17.4583 2.27701 18.5337 0.844628 20.3136C0.74055 20.4429 0.634519 20.5741 0.526537 20.7107C0.247606 21.057 0.0708808 21.4783 0.0172752 21.9248C-0.0363304 22.3712 0.035428 22.8241 0.224058 23.2299C0.625412 24.1004 1.48081 24.6408 2.4572 24.6408H22.5503C23.5221 24.6408 24.3717 24.1011 24.7743 23.2346C24.9638 22.8287 25.0362 22.3754 24.983 21.9285C24.9299 21.4815 24.7534 21.0596 24.4744 20.7127ZM12.5002 30C13.4401 29.9992 14.3624 29.7365 15.1691 29.2399C15.9758 28.7432 16.6369 28.031 17.0822 27.1788C17.1032 27.138 17.1136 27.0922 17.1123 27.046C17.1111 26.9999 17.0982 26.9548 17.075 26.9152C17.0519 26.8757 17.0191 26.843 16.9801 26.8203C16.941 26.7976 16.8968 26.7857 16.852 26.7857H8.14966C8.10473 26.7856 8.06052 26.7974 8.02135 26.82C7.98217 26.8427 7.94936 26.8754 7.9261 26.915C7.90285 26.9545 7.88995 26.9996 7.88866 27.0459C7.88737 27.0921 7.89773 27.1379 7.91874 27.1788C8.36402 28.0309 9.025 28.743 9.83158 29.2397C10.6382 29.7364 11.5603 29.9991 12.5002 30Z" fill="#1B4965"/>
</svg>
