<svg width="48" height="49" viewBox="0 0 48 49" fill="none" xmlns="http://www.w3.org/2000/svg">
<g clip-path="url(#clip0_862_2145)">
<g filter="url(#filter0_d_862_2145)">
<ellipse cx="10.8292" cy="26.3625" rx="4.87805" ry="4.98361" fill="#3592F0"/>
<ellipse cx="37.1708" cy="25.8645" rx="4.87805" ry="4.98361" fill="#3592F0"/>
<path d="M2.3999 40.5C2.3999 36.0817 5.98162 32.5 10.3999 32.5C14.8182 32.5 18.3999 36.0817 18.3999 40.5V45.3H2.3999V40.5Z" fill="#3592F0"/>
<path d="M30.3413 39.6701C30.3413 35.8984 33.3989 32.8408 37.1706 32.8408C40.9423 32.8408 43.9998 35.8984 43.9998 39.6701V45.2998H30.3413V39.6701Z" fill="#3592F0"/>
<ellipse cx="23.9999" cy="21.6805" rx="5.85366" ry="5.98033" fill="white"/>
<path d="M14.3999 39.7006C14.3999 34.3986 18.698 30.1006 23.9999 30.1006C29.3018 30.1006 33.5999 34.3987 33.5999 39.7006V45.3006H14.3999V39.7006Z" fill="white"/>
</g>
</g>
<defs>
<filter id="filter0_d_862_2145" x="2.3999" y="15.7002" width="43.5999" height="33.6006" filterUnits="userSpaceOnUse" color-interpolation-filters="sRGB">
<feFlood flood-opacity="0" result="BackgroundImageFix"/>
<feColorMatrix in="SourceAlpha" type="matrix" values="0 0 0 0 0 0 0 0 0 0 0 0 0 0 0 0 0 0 127 0" result="hardAlpha"/>
<feOffset dx="2" dy="4"/>
<feComposite in2="hardAlpha" operator="out"/>
<feColorMatrix type="matrix" values="0 0 0 0 0 0 0 0 0 0 0 0 0 0 0 0 0 0 0.25 0"/>
<feBlend mode="normal" in2="BackgroundImageFix" result="effect1_dropShadow_862_2145"/>
<feBlend mode="normal" in="SourceGraphic" in2="effect1_dropShadow_862_2145" result="shape"/>
</filter>
<clipPath id="clip0_862_2145">
<rect width="48" height="48" fill="white" transform="translate(0 0.5)"/>
</clipPath>
</defs>
</svg>
