<svg width="21" height="23" viewBox="0 0 21 23" fill="none" xmlns="http://www.w3.org/2000/svg">
<g filter="url(#filter0_d_862_2858)">
<path d="M10 20.1211C15.5228 20.1211 20 15.6439 20 10.1211C20 4.59825 15.5228 0.121094 10 0.121094C4.47715 0.121094 0 4.59825 0 10.1211C0 15.6439 4.47715 20.1211 10 20.1211Z" fill="#3592F0"/>
<path d="M6 12.1211C6 12.1211 7.5 14.1211 10 14.1211C12.5 14.1211 14 12.1211 14 12.1211" fill="#3592F0"/>
<path d="M6 12.1211C6 12.1211 7.5 14.1211 10 14.1211C12.5 14.1211 14 12.1211 14 12.1211" stroke="white" stroke-width="2" stroke-linecap="round" stroke-linejoin="round"/>
<path d="M7 7.12109H7.01" stroke="white" stroke-width="2" stroke-linecap="round" stroke-linejoin="round"/>
<path d="M13 7.12109H13.01" stroke="white" stroke-width="2" stroke-linecap="round" stroke-linejoin="round"/>
</g>
<defs>
<filter id="filter0_d_862_2858" x="0" y="0.121094" width="21" height="22" filterUnits="userSpaceOnUse" color-interpolation-filters="sRGB">
<feFlood flood-opacity="0" result="BackgroundImageFix"/>
<feColorMatrix in="SourceAlpha" type="matrix" values="0 0 0 0 0 0 0 0 0 0 0 0 0 0 0 0 0 0 127 0" result="hardAlpha"/>
<feOffset dx="1" dy="2"/>
<feComposite in2="hardAlpha" operator="out"/>
<feColorMatrix type="matrix" values="0 0 0 0 0 0 0 0 0 0 0 0 0 0 0 0 0 0 0.25 0"/>
<feBlend mode="normal" in2="BackgroundImageFix" result="effect1_dropShadow_862_2858"/>
<feBlend mode="normal" in="SourceGraphic" in2="effect1_dropShadow_862_2858" result="shape"/>
</filter>
</defs>
</svg>
