<svg width="22" height="23" viewBox="0 0 22 23" fill="none" xmlns="http://www.w3.org/2000/svg">
<g filter="url(#filter0_d_862_2852)">
<path d="M9 2.12109H2C1.46957 2.12109 0.960859 2.33181 0.585786 2.70688C0.210714 3.08195 0 3.59066 0 4.12109V18.1211C0 18.6515 0.210714 19.1602 0.585786 19.5353C0.960859 19.9104 1.46957 20.1211 2 20.1211H16C16.5304 20.1211 17.0391 19.9104 17.4142 19.5353C17.7893 19.1602 18 18.6515 18 18.1211V11.1211" fill="white"/>
<path d="M16.5 0.62132C16.8978 0.223496 17.4374 -5.92805e-09 18 0C18.5626 5.92805e-09 19.1022 0.223496 19.5 0.62132C19.8978 1.01915 20.1213 1.55871 20.1213 2.12132C20.1213 2.68393 19.8978 3.2235 19.5 3.62132L10 13.1213L6 14.1213L7 10.1213L16.5 0.62132Z" fill="#3592F0"/>
</g>
<defs>
<filter id="filter0_d_862_2852" x="0" y="0" width="21.1213" height="22.1211" filterUnits="userSpaceOnUse" color-interpolation-filters="sRGB">
<feFlood flood-opacity="0" result="BackgroundImageFix"/>
<feColorMatrix in="SourceAlpha" type="matrix" values="0 0 0 0 0 0 0 0 0 0 0 0 0 0 0 0 0 0 127 0" result="hardAlpha"/>
<feOffset dx="1" dy="2"/>
<feComposite in2="hardAlpha" operator="out"/>
<feColorMatrix type="matrix" values="0 0 0 0 0 0 0 0 0 0 0 0 0 0 0 0 0 0 0.25 0"/>
<feBlend mode="normal" in2="BackgroundImageFix" result="effect1_dropShadow_862_2852"/>
<feBlend mode="normal" in="SourceGraphic" in2="effect1_dropShadow_862_2852" result="shape"/>
</filter>
</defs>
</svg>
