<svg width="26" height="27" viewBox="0 0 26 27" fill="none" xmlns="http://www.w3.org/2000/svg">
<path fill-rule="evenodd" clip-rule="evenodd" d="M11.6201 1C9.84671 1.00015 8.0991 1.42437 6.52305 2.23725C4.947 3.05014 3.5882 4.22813 2.56002 5.67294C1.53184 7.11775 0.864097 8.78748 0.612499 10.5428C0.360901 12.2982 0.532743 14.0882 1.11369 15.7637C1.69464 17.4391 2.66784 18.9513 3.95211 20.1741C5.23638 21.397 6.79446 22.295 8.49638 22.7932C10.1983 23.2914 11.9947 23.3755 13.7357 23.0383C15.4767 22.7011 17.1118 21.9524 18.5046 20.8548L23.2827 25.6327C23.5295 25.8711 23.86 26.0029 24.203 26C24.5461 25.997 24.8742 25.8594 25.1168 25.6168C25.3594 25.3742 25.497 25.0461 25.5 24.7031C25.5029 24.36 25.3711 24.0295 25.1327 23.7828L20.3546 19.0049C21.6473 17.3651 22.4521 15.3945 22.6771 13.3186C22.902 11.2428 22.538 9.14553 21.6266 7.2669C20.7153 5.38827 19.2934 3.80416 17.5237 2.69586C15.7541 1.58757 13.7081 0.99986 11.6201 1ZM3.11576 12.1206C3.11576 9.86519 4.01175 7.70217 5.60661 6.10736C7.20148 4.51256 9.36458 3.61661 11.6201 3.61661C13.8755 3.61661 16.0386 4.51256 17.6335 6.10736C19.2284 7.70217 20.1244 9.86519 20.1244 12.1206C20.1244 14.376 19.2284 16.539 17.6335 18.1338C16.0386 19.7286 13.8755 20.6246 11.6201 20.6246C9.36458 20.6246 7.20148 19.7286 5.60661 18.1338C4.01175 16.539 3.11576 14.376 3.11576 12.1206Z" fill="white" stroke="white"/>
</svg>
