<svg width="48" height="49" viewBox="0 0 48 49" fill="none" xmlns="http://www.w3.org/2000/svg">
<g clip-path="url(#clip0_862_718)">
<g filter="url(#filter0_d_862_718)">
<path fill-rule="evenodd" clip-rule="evenodd" d="M37.7408 31.7411C37.6258 31.1071 37.7035 30.4532 37.9636 29.8636C38.2114 29.2855 38.6228 28.7925 39.1472 28.4452C39.6716 28.098 40.2861 27.9116 40.915 27.9091H41.0909C42.1277 27.9091 43.122 27.4972 43.8551 26.7641C44.5882 26.031 45 25.0368 45 24C45 22.9632 44.5882 21.969 43.8551 21.2359C43.122 20.5028 42.1277 20.0909 41.0909 20.0909H40.7586C40.1297 20.0884 39.5152 19.902 38.9908 19.5548C38.4664 19.2075 38.055 18.7145 37.8073 18.1364V17.98C37.5471 17.3905 37.4695 16.7365 37.5844 16.1025C37.6994 15.4684 38.0017 14.8834 38.4523 14.4227L38.5695 14.3055C38.933 13.9424 39.2213 13.5113 39.4181 13.0367C39.6148 12.5622 39.716 12.0535 39.716 11.5398C39.716 11.0261 39.6148 10.5174 39.4181 10.0428C39.2213 9.56827 38.933 9.13714 38.5695 8.77409C38.2065 8.41064 37.7754 8.12231 37.3008 7.92559C36.8263 7.72886 36.3176 7.62761 35.8039 7.62761C35.2901 7.62761 34.7815 7.72886 34.3069 7.92559C33.8324 8.12231 33.4012 8.41064 33.0382 8.77409L32.9209 8.89136C32.4603 9.34196 31.8752 9.64423 31.2411 9.75919C30.6071 9.87416 29.9532 9.79654 29.3636 9.53636C28.7855 9.2886 28.2925 8.8772 27.9452 8.35282C27.598 7.82843 27.4116 7.21395 27.4091 6.585V6.40909C27.4091 5.37234 26.9972 4.37804 26.2641 3.64495C25.531 2.91185 24.5368 2.5 23.5 2.5C22.4632 2.5 21.469 2.91185 20.7359 3.64495C20.0028 4.37804 19.5909 5.37234 19.5909 6.40909V6.74136C19.5884 7.37031 19.402 7.9848 19.0548 8.50918C18.7075 9.03357 18.2145 9.44496 17.6364 9.69273H17.48C16.8905 9.95291 16.2365 10.0305 15.6025 9.91555C14.9684 9.80059 14.3834 9.49832 13.9227 9.04773L13.8055 8.93046C13.4424 8.567 13.0113 8.27867 12.5367 8.08195C12.0622 7.88523 11.5535 7.78397 11.0398 7.78397C10.5261 7.78397 10.0174 7.88523 9.54282 8.08195C9.06827 8.27867 8.63714 8.567 8.27409 8.93046C7.91064 9.2935 7.62231 9.72463 7.42559 10.1992C7.22886 10.6737 7.12761 11.1824 7.12761 11.6961C7.12761 12.2099 7.22886 12.7185 7.42559 13.1931C7.62231 13.6676 7.91064 14.0988 8.27409 14.4618L8.39136 14.5791C8.84196 15.0397 9.14423 15.6248 9.25919 16.2589C9.37416 16.8929 9.29654 17.5468 9.03636 18.1364C8.81299 18.7437 8.41207 19.2698 7.88572 19.6463C7.35937 20.0227 6.73194 20.2321 6.085 20.2473H5.90909C4.87234 20.2473 3.87804 20.6591 3.14495 21.3922C2.41185 22.1253 2 23.1196 2 24.1564C2 25.1931 2.41185 26.1874 3.14495 26.9205C3.87804 27.6536 4.87234 28.0655 5.90909 28.0655H6.24136C6.87031 28.068 7.4848 28.2543 8.00918 28.6016C8.53357 28.9489 8.94496 29.4419 9.19273 30.02C9.45291 30.6095 9.53052 31.2635 9.41555 31.8975C9.30059 32.5316 8.99832 33.1166 8.54773 33.5773L8.43046 33.6945C8.067 34.0576 7.77867 34.4887 7.58195 34.9633C7.38523 35.4378 7.28397 35.9465 7.28397 36.4602C7.28397 36.9739 7.38523 37.4826 7.58195 37.9572C7.77867 38.4317 8.067 38.8629 8.43046 39.2259C8.7935 39.5894 9.22463 39.8777 9.69919 40.0744C10.1737 40.2711 10.6824 40.3724 11.1961 40.3724C11.7099 40.3724 12.2185 40.2711 12.6931 40.0744C13.1676 39.8777 13.5988 39.5894 13.9618 39.2259L14.0791 39.1086C14.5397 38.658 15.1248 38.3558 15.7589 38.2408C16.3929 38.1258 17.0468 38.2035 17.6364 38.4636C18.2437 38.687 18.7698 39.0879 19.1463 39.6143C19.5227 40.1406 19.7321 40.7681 19.7473 41.415V41.5909C19.7473 42.6277 20.1591 43.622 20.8922 44.3551C21.6253 45.0882 22.6196 45.5 23.6564 45.5C24.6931 45.5 25.6874 45.0882 26.4205 44.3551C27.1536 43.622 27.5655 42.6277 27.5655 41.5909V41.2586C27.568 40.6297 27.7543 40.0152 28.1016 39.4908C28.4489 38.9664 28.9419 38.555 29.52 38.3073C30.1095 38.0471 30.7635 37.9695 31.3975 38.0844C32.0316 38.1994 32.6166 38.5017 33.0773 38.9523L33.1945 39.0695C33.5576 39.433 33.9887 39.7213 34.4633 39.9181C34.9378 40.1148 35.4465 40.216 35.9602 40.216C36.4739 40.216 36.9826 40.1148 37.4572 39.9181C37.9317 39.7213 38.3629 39.433 38.7259 39.0695C39.0894 38.7065 39.3777 38.2754 39.5744 37.8008C39.7711 37.3263 39.8724 36.8176 39.8724 36.3039C39.8724 35.7901 39.7711 35.2815 39.5744 34.8069C39.3777 34.3324 39.0894 33.9012 38.7259 33.5382L38.6086 33.4209C38.158 32.9603 37.8558 32.3752 37.7408 31.7411ZM23.5 29.8636C26.7384 29.8636 29.3636 27.2384 29.3636 24C29.3636 20.7616 26.7384 18.1364 23.5 18.1364C20.2616 18.1364 17.6364 20.7616 17.6364 24C17.6364 27.2384 20.2616 29.8636 23.5 29.8636Z" fill="#3592F0"/>
</g>
</g>
<defs>
<filter id="filter0_d_862_718" x="2" y="2.5" width="45" height="47" filterUnits="userSpaceOnUse" color-interpolation-filters="sRGB">
<feFlood flood-opacity="0" result="BackgroundImageFix"/>
<feColorMatrix in="SourceAlpha" type="matrix" values="0 0 0 0 0 0 0 0 0 0 0 0 0 0 0 0 0 0 127 0" result="hardAlpha"/>
<feOffset dx="2" dy="4"/>
<feComposite in2="hardAlpha" operator="out"/>
<feColorMatrix type="matrix" values="0 0 0 0 0 0 0 0 0 0 0 0 0 0 0 0 0 0 0.25 0"/>
<feBlend mode="normal" in2="BackgroundImageFix" result="effect1_dropShadow_862_718"/>
<feBlend mode="normal" in="SourceGraphic" in2="effect1_dropShadow_862_718" result="shape"/>
</filter>
<clipPath id="clip0_862_718">
<rect width="48" height="48" fill="white" transform="translate(0 0.5)"/>
</clipPath>
</defs>
</svg>
