<svg width="22" height="20" viewBox="0 0 22 20" fill="none" xmlns="http://www.w3.org/2000/svg">
<path d="M20.9022 8.48032L16.0554 12.681L17.5363 18.9609C17.5754 19.1223 17.5661 19.2917 17.5095 19.4478C17.4528 19.6038 17.3514 19.7395 17.2181 19.8376C17.0847 19.9358 16.9254 19.992 16.7603 19.9992C16.5951 20.0064 16.4316 19.9642 16.2903 19.878L10.8443 16.5115L5.39837 19.877C5.25707 19.9632 5.09351 20.0054 4.92837 19.9982C4.76323 19.991 4.60391 19.9348 4.47056 19.8366C4.33721 19.7385 4.2358 19.6028 4.17916 19.4468C4.12252 19.2907 4.11318 19.1213 4.15233 18.9599L5.63324 12.68L0.786434 8.47932C0.662858 8.37028 0.573763 8.22726 0.530149 8.06791C0.486535 7.90856 0.490312 7.73987 0.541013 7.58265C0.591714 7.42544 0.68712 7.28659 0.815451 7.18324C0.943783 7.07989 1.09942 7.01657 1.26315 7.0011L7.62372 6.48103L10.074 0.520135C10.1365 0.36635 10.2431 0.234748 10.3803 0.142111C10.5175 0.0494734 10.679 0 10.8443 0C11.0096 0 11.1711 0.0494734 11.3083 0.142111C11.4455 0.234748 11.5522 0.36635 11.6146 0.520135L14.0649 6.48103L20.4255 7.0011C20.5894 7.01639 20.7453 7.07966 20.8739 7.18306C21.0024 7.28647 21.098 7.42549 21.1487 7.58291C21.1994 7.74033 21.2031 7.90924 21.1593 8.06875C21.1155 8.22825 21.0261 8.37135 20.9022 8.48032Z" fill="#3592F0"/>
</svg>
