<svg width="22" height="20" viewBox="0 0 22 20" fill="none" xmlns="http://www.w3.org/2000/svg">
<path d="M21.2127 8.48032L16.3659 12.681L17.8468 18.9609C17.886 19.1223 17.8767 19.2917 17.82 19.4478C17.7634 19.6038 17.662 19.7395 17.5286 19.8376C17.3953 19.9358 17.2359 19.992 17.0708 19.9992C16.9057 20.0064 16.7421 19.9642 16.6008 19.878L11.1549 16.5115L5.70892 19.877C5.56762 19.9632 5.40406 20.0054 5.23892 19.9982C5.07378 19.991 4.91446 19.9348 4.78111 19.8366C4.64775 19.7385 4.54635 19.6028 4.4897 19.4468C4.43306 19.2907 4.42373 19.1213 4.46288 18.9599L5.94379 12.68L1.09698 8.47932C0.973404 8.37028 0.88431 8.22726 0.840696 8.06791C0.797082 7.90856 0.800859 7.73987 0.85156 7.58265C0.902261 7.42544 0.997667 7.28659 1.126 7.18324C1.25433 7.07989 1.40997 7.01657 1.5737 7.0011L7.93427 6.48103L10.3845 0.520135C10.447 0.36635 10.5536 0.234748 10.6908 0.142111C10.828 0.0494734 10.9896 0 11.1549 0C11.3201 0 11.4817 0.0494734 11.6189 0.142111C11.7561 0.234748 11.8627 0.36635 11.9252 0.520135L14.3755 6.48103L20.736 7.0011C20.9 7.01639 21.0559 7.07966 21.1844 7.18306C21.313 7.28647 21.4085 7.42549 21.4592 7.58291C21.51 7.74033 21.5137 7.90924 21.4698 8.06875C21.426 8.22825 21.3366 8.37135 21.2127 8.48032Z" fill="#B9B9B9"/>
</svg>
