<svg width="50" height="53" viewBox="0 0 50 53" fill="none" xmlns="http://www.w3.org/2000/svg">
<g filter="url(#filter0_d_862_2161)">
<path fill-rule="evenodd" clip-rule="evenodd" d="M7.02688 41.468C2.68524 37.1251 0 31.1261 0 24.5C0 18.701 2.05669 13.3824 5.48043 9.23377C5.96877 8.64204 6.48492 8.07412 7.02688 7.532L17.208 17.7156C15.473 19.4525 14.4 21.851 14.4 24.5C14.4 27.149 15.473 29.5475 17.208 31.2844L7.02688 41.468ZM40.9706 41.4706C45.3137 37.1274 48 31.1274 48 24.5C48 17.8739 45.3148 11.8749 40.9731 7.532L30.792 17.7156C32.527 19.4525 33.6 21.8509 33.6 24.5C33.6 27.149 32.527 29.5475 30.792 31.2844L40.9706 41.4706Z" fill="#3592F0"/>
<path d="M24 48.5C30.6274 48.5 36.6274 45.8137 40.9706 41.4706L30.792 31.2844C29.0544 33.0239 26.6529 34.1 24 34.1C21.3471 34.1 18.9456 33.0239 17.208 31.2844L7.02688 41.468C11.3702 45.8127 17.3713 48.5 24 48.5Z" fill="white"/>
<path d="M17.208 17.7156C18.9456 15.9761 21.3471 14.9 24 14.9C26.6529 14.9 29.0544 15.9761 30.792 17.7156L40.9731 7.532L40.9706 7.52944C36.6274 3.18629 30.6274 0.5 24 0.5C17.3713 0.5 11.3702 3.18735 7.02688 7.532L17.208 17.7156Z" fill="white"/>
</g>
<defs>
<filter id="filter0_d_862_2161" x="0" y="0.5" width="50" height="52" filterUnits="userSpaceOnUse" color-interpolation-filters="sRGB">
<feFlood flood-opacity="0" result="BackgroundImageFix"/>
<feColorMatrix in="SourceAlpha" type="matrix" values="0 0 0 0 0 0 0 0 0 0 0 0 0 0 0 0 0 0 127 0" result="hardAlpha"/>
<feOffset dx="2" dy="4"/>
<feComposite in2="hardAlpha" operator="out"/>
<feColorMatrix type="matrix" values="0 0 0 0 0 0 0 0 0 0 0 0 0 0 0 0 0 0 0.25 0"/>
<feBlend mode="normal" in2="BackgroundImageFix" result="effect1_dropShadow_862_2161"/>
<feBlend mode="normal" in="SourceGraphic" in2="effect1_dropShadow_862_2161" result="shape"/>
</filter>
</defs>
</svg>
