<svg width="48" height="49" viewBox="0 0 48 49" fill="none" xmlns="http://www.w3.org/2000/svg">
<g filter="url(#filter0_d_862_564)">
<path d="M40 39.2998V35.2998C40 33.1781 39.1571 31.1432 37.6569 29.643C36.1566 28.1427 34.1217 27.2998 32 27.2998H16C13.8783 27.2998 11.8434 28.1427 10.3431 29.643C8.84285 31.1432 8 33.1781 8 35.2998V39.2998" fill="#3592F0"/>
<path d="M24 22.5C28.4183 22.5 32 18.9183 32 14.5C32 10.0817 28.4183 6.5 24 6.5C19.5817 6.5 16 10.0817 16 14.5C16 18.9183 19.5817 22.5 24 22.5Z" fill="#3592F0"/>
</g>
<defs>
<filter id="filter0_d_862_564" x="8" y="6.5" width="34" height="36.7998" filterUnits="userSpaceOnUse" color-interpolation-filters="sRGB">
<feFlood flood-opacity="0" result="BackgroundImageFix"/>
<feColorMatrix in="SourceAlpha" type="matrix" values="0 0 0 0 0 0 0 0 0 0 0 0 0 0 0 0 0 0 127 0" result="hardAlpha"/>
<feOffset dx="2" dy="4"/>
<feComposite in2="hardAlpha" operator="out"/>
<feColorMatrix type="matrix" values="0 0 0 0 0 0 0 0 0 0 0 0 0 0 0 0 0 0 0.25 0"/>
<feBlend mode="normal" in2="BackgroundImageFix" result="effect1_dropShadow_862_564"/>
<feBlend mode="normal" in="SourceGraphic" in2="effect1_dropShadow_862_564" result="shape"/>
</filter>
</defs>
</svg>
